<svg width="667.617" height="98.086" viewBox="3.7578125 -16.515743432210883 673.6171875 104.08605593221088" xmlns="http://www.w3.org/2000/svg"><g id="svgGroup" stroke-linecap="round" fill-rule="evenodd" font-size="9pt" stroke="#ffffff" stroke-width="0.25mm" fill="#ffffff" style="stroke:#ffffff;stroke-width:0.25mm;fill:#ffffff"><path d="M 111.484 47.422 L 114.492 64.57 L 106.016 64.57 A 50.086 50.086 0 0 1 105.853 63.571 Q 105.68 62.435 105.48 60.869 A 207.656 207.656 0 0 1 105.293 59.355 Q 104.883 55.938 104.531 53.574 A 68.566 68.566 0 0 0 104 50.506 A 83.21 83.21 0 0 0 103.594 48.555 A 22.743 22.743 0 0 0 103.056 46.538 Q 102.742 45.554 102.36 44.726 A 12.182 12.182 0 0 0 102.051 44.102 A 8.944 8.944 0 0 0 101.229 42.819 Q 100.694 42.13 100.073 41.66 A 5.186 5.186 0 0 0 99.766 41.445 Q 98.041 40.711 94.515 40.577 A 43.889 43.889 0 0 0 92.852 40.547 L 80.781 40.547 L 80.781 64.57 L 72.891 64.57 L 72.891 6.367 L 90.664 6.367 A 226.951 226.951 0 0 1 92.655 6.375 Q 93.436 6.382 94.134 6.395 A 113.004 113.004 0 0 1 95.449 6.426 A 66.924 66.924 0 0 1 98.263 6.571 A 78.493 78.493 0 0 1 99.609 6.68 Q 101.263 6.827 102.515 7.064 A 17.251 17.251 0 0 1 103.281 7.227 A 23.793 23.793 0 0 1 105.732 7.953 A 26.837 26.837 0 0 1 106.309 8.164 A 10.291 10.291 0 0 1 107.554 8.729 Q 108.287 9.126 108.848 9.609 Q 109.844 10.469 110.742 11.66 A 9.148 9.148 0 0 1 111.962 13.875 A 10.62 10.62 0 0 1 112.148 14.395 A 18.069 18.069 0 0 1 112.603 16.05 Q 112.803 16.934 112.949 17.93 Q 113.242 19.922 113.242 22.383 A 31.722 31.722 0 0 1 113.02 26.275 Q 112.451 30.86 110.43 33.457 A 11.566 11.566 0 0 1 104.108 37.564 A 15.486 15.486 0 0 1 102.578 37.891 A 11.832 11.832 0 0 1 106.972 39.675 Q 109.604 41.482 110.804 44.813 A 15.711 15.711 0 0 1 111.484 47.422 Z M 488.008 47.422 L 491.016 64.57 L 482.539 64.57 A 50.086 50.086 0 0 1 482.377 63.571 Q 482.203 62.435 482.003 60.869 A 207.656 207.656 0 0 1 481.816 59.355 Q 481.406 55.938 481.055 53.574 A 68.566 68.566 0 0 0 480.524 50.506 A 83.21 83.21 0 0 0 480.117 48.555 A 22.743 22.743 0 0 0 479.58 46.538 Q 479.265 45.554 478.884 44.726 A 12.182 12.182 0 0 0 478.574 44.102 A 8.944 8.944 0 0 0 477.753 42.819 Q 477.218 42.13 476.596 41.66 A 5.186 5.186 0 0 0 476.289 41.445 Q 474.565 40.711 471.039 40.577 A 43.889 43.889 0 0 0 469.375 40.547 L 457.305 40.547 L 457.305 64.57 L 449.414 64.57 L 449.414 6.367 L 467.188 6.367 A 226.951 226.951 0 0 1 469.179 6.375 Q 469.959 6.382 470.658 6.395 A 113.004 113.004 0 0 1 471.973 6.426 A 66.924 66.924 0 0 1 474.787 6.571 A 78.493 78.493 0 0 1 476.133 6.68 Q 477.786 6.827 479.038 7.064 A 17.251 17.251 0 0 1 479.805 7.227 A 23.793 23.793 0 0 1 482.255 7.953 A 26.837 26.837 0 0 1 482.832 8.164 A 10.291 10.291 0 0 1 484.077 8.729 Q 484.811 9.126 485.371 9.609 Q 486.367 10.469 487.266 11.66 A 9.148 9.148 0 0 1 488.486 13.875 A 10.62 10.62 0 0 1 488.672 14.395 A 18.069 18.069 0 0 1 489.126 16.05 Q 489.326 16.934 489.473 17.93 Q 489.766 19.922 489.766 22.383 A 31.722 31.722 0 0 1 489.543 26.275 Q 488.975 30.86 486.953 33.457 A 11.566 11.566 0 0 1 480.631 37.564 A 15.486 15.486 0 0 1 479.102 37.891 A 11.832 11.832 0 0 1 483.495 39.675 Q 486.127 41.482 487.327 44.813 A 15.711 15.711 0 0 1 488.008 47.422 Z M 391.289 53.359 L 397.344 51.797 Q 397.629 55.415 397.992 56.867 A 4.399 4.399 0 0 0 398.164 57.422 A 3.165 3.165 0 0 0 399.716 59.006 Q 400.232 59.263 400.889 59.41 A 6.87 6.87 0 0 0 401.094 59.453 Q 402.773 59.805 408.164 59.805 A 58.79 58.79 0 0 0 409.681 59.786 Q 411.802 59.731 412.988 59.512 A 5.768 5.768 0 0 0 413.776 59.312 Q 414.677 59.009 415.08 58.452 A 1.697 1.697 0 0 0 415.117 58.398 Q 416.437 57.309 416.642 51.787 A 58.962 58.962 0 0 0 416.68 49.609 A 4.573 4.573 0 0 0 416.593 48.697 A 3.313 3.313 0 0 0 416.211 47.676 A 3.971 3.971 0 0 0 415.729 47.011 A 3.022 3.022 0 0 0 415.078 46.465 Q 414.632 46.189 413.948 45.967 A 10.284 10.284 0 0 0 413.223 45.762 Q 412.031 45.469 411.074 45.371 Q 410.117 45.273 408.555 45.117 Q 406.992 44.961 406.055 44.844 A 149.69 149.69 0 0 1 404.695 44.689 Q 402.754 44.458 401.406 44.238 A 25.307 25.307 0 0 1 397.888 43.396 A 27.73 27.73 0 0 1 397.773 43.359 Q 395.938 42.773 394.902 41.914 A 8.224 8.224 0 0 1 393.793 40.787 A 10.883 10.883 0 0 1 393.008 39.688 A 8.221 8.221 0 0 1 392.184 37.924 A 10.996 10.996 0 0 1 391.797 36.406 Q 391.511 34.847 391.457 32.796 A 37.101 37.101 0 0 1 391.445 31.836 A 22.67 22.67 0 0 1 391.528 29.847 Q 391.614 28.875 391.789 28.033 A 11.532 11.532 0 0 1 392.031 27.07 A 9.896 9.896 0 0 1 392.727 25.334 A 7.575 7.575 0 0 1 393.75 23.828 Q 394.883 22.539 396.855 21.816 A 17.611 17.611 0 0 1 399.229 21.139 A 22.626 22.626 0 0 1 401.289 20.801 A 36.783 36.783 0 0 1 403.289 20.622 Q 405.083 20.508 407.305 20.508 A 147.333 147.333 0 0 1 408.368 20.511 Q 409.888 20.522 410.957 20.566 A 32.459 32.459 0 0 1 412.451 20.664 A 42.675 42.675 0 0 1 414.082 20.84 A 18.978 18.978 0 0 1 415.174 21.008 Q 415.689 21.104 416.126 21.222 A 8.094 8.094 0 0 1 416.836 21.445 A 9.902 9.902 0 0 1 418.162 22.056 A 12.124 12.124 0 0 1 418.965 22.539 A 5.238 5.238 0 0 1 420.188 23.634 A 4.768 4.768 0 0 1 420.625 24.277 A 8.241 8.241 0 0 1 421.127 25.347 Q 421.385 26.008 421.582 26.797 Q 421.953 28.281 421.953 30.195 L 416.719 31.797 A 86.056 86.056 0 0 0 416.642 31.075 Q 416.528 30.054 416.426 29.395 Q 416.289 28.516 415.82 27.773 A 4.789 4.789 0 0 0 415.494 27.314 Q 415.316 27.095 415.134 26.935 A 2.136 2.136 0 0 0 414.844 26.719 A 2.362 2.362 0 0 0 414.501 26.549 Q 414.12 26.393 413.531 26.26 A 12.664 12.664 0 0 0 413.105 26.172 A 15.889 15.889 0 0 0 410.625 25.898 A 58.169 58.169 0 0 0 409.932 25.881 Q 408.789 25.859 407.031 25.859 A 39.64 39.64 0 0 0 404.865 25.914 Q 401.689 26.089 400.317 26.821 A 3.499 3.499 0 0 0 400.254 26.855 A 3.282 3.282 0 0 0 398.556 29.214 A 4.87 4.87 0 0 0 398.477 30.117 L 398.477 34.102 Q 398.477 35.411 398.875 36.232 A 2.273 2.273 0 0 0 400.02 37.363 Q 401.563 38.047 408.281 38.906 A 43.337 43.337 0 0 0 408.611 38.96 Q 408.928 39.01 409.152 39.04 A 8.999 8.999 0 0 0 409.336 39.063 Q 412.031 39.375 413.613 39.648 Q 415.195 39.922 416.953 40.371 A 14.903 14.903 0 0 1 417.97 40.667 Q 418.955 40.995 419.576 41.391 A 4.177 4.177 0 0 1 419.629 41.426 A 10.081 10.081 0 0 1 420.662 42.212 A 13.165 13.165 0 0 1 421.465 42.969 A 5.373 5.373 0 0 1 422.668 44.897 A 6.433 6.433 0 0 1 422.793 45.273 Q 423.203 46.641 423.457 48.438 Q 423.711 50.234 423.711 52.695 Q 423.711 56.445 422.891 58.848 A 8.157 8.157 0 0 1 421.561 61.321 A 7.41 7.41 0 0 1 420.176 62.656 Q 418.281 64.063 415.566 64.609 A 24.119 24.119 0 0 1 413.355 64.94 Q 412.208 65.062 410.882 65.115 A 54.207 54.207 0 0 1 408.711 65.156 Q 406.289 65.156 404.824 65.117 A 49.643 49.643 0 0 1 403.456 65.061 Q 402.756 65.022 401.975 64.964 A 87.383 87.383 0 0 1 401.445 64.922 Q 399.619 64.773 398.504 64.464 A 7.471 7.471 0 0 1 398.398 64.434 A 18.399 18.399 0 0 1 397.222 64.043 A 24.43 24.43 0 0 1 395.957 63.535 A 6.662 6.662 0 0 1 394.92 62.98 Q 394.324 62.584 393.906 62.09 A 11.199 11.199 0 0 1 393.118 61.029 A 14.752 14.752 0 0 1 392.5 60 A 7.847 7.847 0 0 1 391.891 58.541 A 10.624 10.624 0 0 1 391.562 57.129 Q 391.289 55.469 391.289 53.359 Z M 289.609 40.781 L 289.609 64.57 L 281.914 64.57 L 281.914 38.633 Q 281.914 36.133 281.895 34.629 Q 281.875 33.125 281.738 31.602 Q 281.627 30.357 281.502 29.621 A 9.02 9.02 0 0 0 281.445 29.316 A 5.34 5.34 0 0 0 281.079 28.198 A 6.344 6.344 0 0 0 280.879 27.793 Q 280.5 27.09 280.105 26.803 A 1.3 1.3 0 0 0 280.039 26.758 A 3.092 3.092 0 0 0 279.715 26.58 Q 279.34 26.401 278.789 26.23 A 6.592 6.592 0 0 0 277.148 25.937 A 26.304 26.304 0 0 0 276.704 25.92 Q 275.986 25.898 274.961 25.898 A 44.73 44.73 0 0 0 272.858 25.945 Q 271.208 26.023 269.902 26.23 Q 267.813 26.563 266.484 27.148 A 5.29 5.29 0 0 0 265.308 27.852 A 4.333 4.333 0 0 0 264.434 28.789 A 6.506 6.506 0 0 0 263.437 31.074 Q 263.229 32.01 263.18 33.274 A 21.049 21.049 0 0 0 263.164 34.102 Q 263.164 35.117 263.281 37.637 Q 263.386 39.891 263.397 41.379 A 45.824 45.824 0 0 1 263.398 41.719 L 263.398 64.57 L 255.703 64.57 L 255.703 21.719 L 262.734 21.719 L 263.477 26.523 A 6.998 6.998 0 0 1 267.04 22.345 A 9.955 9.955 0 0 1 267.969 21.914 Q 271.2 20.607 275.58 20.515 A 31.887 31.887 0 0 1 276.25 20.508 Q 278.516 20.508 280.273 20.781 A 12.847 12.847 0 0 1 282.031 21.177 A 10.044 10.044 0 0 1 283.398 21.699 A 12.509 12.509 0 0 1 284.801 22.468 A 9.86 9.86 0 0 1 285.762 23.164 A 6.09 6.09 0 0 1 286.885 24.395 A 7.851 7.851 0 0 1 287.441 25.332 Q 288.125 26.68 288.555 28.086 Q 288.984 29.492 289.219 31.602 A 57.449 57.449 0 0 1 289.531 35.801 A 99.55 99.55 0 0 1 289.579 37.481 Q 289.609 38.975 289.609 40.781 Z M 659.766 21.719 L 667.617 21.719 L 654.102 62.5 A 42.966 42.966 0 0 0 653.712 63.698 Q 653.547 64.233 653.376 64.827 A 80.601 80.601 0 0 0 653.027 66.074 A 386.213 386.213 0 0 1 652.756 67.069 Q 652.423 68.287 652.17 69.172 A 116.926 116.926 0 0 1 652.09 69.453 A 36.038 36.038 0 0 1 651.67 70.806 A 48.859 48.859 0 0 1 651.152 72.285 Q 650.732 73.431 650.257 74.233 A 6.712 6.712 0 0 1 649.922 74.746 A 9.624 9.624 0 0 1 648.916 75.917 A 11.725 11.725 0 0 1 648.281 76.504 Q 647.305 77.344 645.938 77.715 A 10.085 10.085 0 0 1 644.512 77.987 Q 643.7 78.086 642.773 78.086 A 41.904 41.904 0 0 1 638.34 77.861 A 32.071 32.071 0 0 1 634.336 77.187 L 635.508 71.25 Q 636.178 71.321 637.263 71.503 A 62.136 62.136 0 0 1 637.5 71.543 A 68.736 68.736 0 0 0 638.391 71.69 Q 638.743 71.746 639.062 71.792 A 36.944 36.944 0 0 0 639.668 71.875 A 15.301 15.301 0 0 0 640.552 71.963 A 11.865 11.865 0 0 0 641.367 71.992 A 5.77 5.77 0 0 0 642.935 71.791 A 4.088 4.088 0 0 0 645.156 70.273 A 4.768 4.768 0 0 0 645.804 69.015 Q 646.278 67.693 646.422 65.599 A 28.095 28.095 0 0 0 646.484 63.906 L 630.43 21.719 L 638.203 21.719 L 646.094 43.477 A 1075.039 1075.039 0 0 1 648.164 49.248 A 894.146 894.146 0 0 1 650.078 54.688 A 283.717 283.717 0 0 1 650.798 52.1 Q 651.992 47.881 653.867 41.641 L 659.766 21.719 Z M 17.422 68.672 L 17.422 74.609 L 0 74.609 L 0 0 L 17.422 0 L 17.422 5.898 L 7.461 5.898 L 7.461 68.672 L 17.422 68.672 Z M 135.43 0 L 135.43 74.609 L 118.047 74.609 L 118.047 68.672 L 127.969 68.672 L 127.969 5.898 L 118.047 5.898 L 118.047 0 L 135.43 0 Z M 243.867 36.211 L 243.867 64.57 L 237.773 64.57 L 236.523 58.438 A 10.873 10.873 0 0 1 235.55 60.79 Q 234.345 62.903 232.285 63.809 A 12.623 12.623 0 0 1 230.092 64.519 Q 227.758 65.067 224.434 65.144 A 48.125 48.125 0 0 1 223.32 65.156 Q 219.414 65.156 216.914 64.395 A 8.951 8.951 0 0 1 214.637 63.354 A 7.481 7.481 0 0 1 212.93 61.836 A 9.603 9.603 0 0 1 211.277 58.858 A 12.104 12.104 0 0 1 210.879 57.441 A 20.851 20.851 0 0 1 210.556 55.478 Q 210.434 54.456 210.373 53.272 A 49.315 49.315 0 0 1 210.313 50.742 A 8.951 8.951 0 0 1 210.489 48.927 A 7.137 7.137 0 0 1 210.957 47.461 A 7.323 7.323 0 0 1 212.715 45 Q 213.678 44.121 215.197 43.447 A 14.211 14.211 0 0 1 215.684 43.242 A 23.919 23.919 0 0 1 219.531 42.07 A 29.352 29.352 0 0 1 221.143 41.773 Q 222.045 41.631 223.074 41.515 A 58.311 58.311 0 0 1 224.355 41.387 A 91.66 91.66 0 0 1 229.883 41.055 Q 232.578 40.977 236.172 40.977 L 236.172 29.375 A 3.241 3.241 0 0 0 235.975 28.213 Q 235.647 27.355 234.776 26.853 A 3.915 3.915 0 0 0 234.297 26.621 Q 232.484 25.885 227.933 25.86 A 58.795 58.795 0 0 0 227.617 25.859 Q 225.045 25.859 223.458 25.951 A 25.316 25.316 0 0 0 222.578 26.016 A 6.838 6.838 0 0 0 221.607 26.172 Q 221.084 26.299 220.669 26.506 A 3.091 3.091 0 0 0 220.02 26.934 A 4.597 4.597 0 0 0 219.563 27.384 Q 219.1 27.916 219.004 28.438 A 5.958 5.958 0 0 0 218.943 28.873 Q 218.858 29.672 218.828 31.211 Q 218.789 31.953 218.789 32.383 L 212.813 32.148 A 7.561 7.561 0 0 1 212.775 31.751 Q 212.734 31.183 212.734 30.313 A 14.98 14.98 0 0 1 212.855 28.354 Q 212.989 27.339 213.272 26.48 A 8.11 8.11 0 0 1 213.496 25.879 Q 214.258 24.063 215.469 23.027 Q 216.467 22.174 218.075 21.626 A 13.011 13.011 0 0 1 218.789 21.406 A 21.698 21.698 0 0 1 222.961 20.665 A 20.614 20.614 0 0 1 222.969 20.664 Q 225.039 20.508 228.125 20.508 A 50.747 50.747 0 0 1 230.883 20.578 Q 232.306 20.656 233.52 20.819 A 20.942 20.942 0 0 1 235.742 21.23 A 11.24 11.24 0 0 1 238.408 22.241 A 9.176 9.176 0 0 1 240.547 23.828 Q 242.422 25.703 243.145 28.613 A 20.639 20.639 0 0 1 243.556 30.824 Q 243.712 31.979 243.789 33.326 A 50.165 50.165 0 0 1 243.867 36.211 Z M 575.508 36.211 L 575.508 64.57 L 569.414 64.57 L 568.164 58.438 A 10.873 10.873 0 0 1 567.191 60.79 Q 565.986 62.903 563.926 63.809 A 12.623 12.623 0 0 1 561.733 64.519 Q 559.398 65.067 556.075 65.144 A 48.125 48.125 0 0 1 554.961 65.156 Q 551.055 65.156 548.555 64.395 A 8.951 8.951 0 0 1 546.278 63.354 A 7.481 7.481 0 0 1 544.57 61.836 A 9.603 9.603 0 0 1 542.917 58.858 A 12.104 12.104 0 0 1 542.52 57.441 A 20.851 20.851 0 0 1 542.197 55.478 Q 542.075 54.456 542.014 53.272 A 49.315 49.315 0 0 1 541.953 50.742 A 8.951 8.951 0 0 1 542.13 48.927 A 7.137 7.137 0 0 1 542.598 47.461 A 7.323 7.323 0 0 1 544.355 45 Q 545.319 44.121 546.838 43.447 A 14.211 14.211 0 0 1 547.324 43.242 A 23.919 23.919 0 0 1 551.172 42.07 A 29.352 29.352 0 0 1 552.784 41.773 Q 553.685 41.631 554.715 41.515 A 58.311 58.311 0 0 1 555.996 41.387 A 91.66 91.66 0 0 1 561.523 41.055 Q 564.219 40.977 567.813 40.977 L 567.813 29.375 A 3.241 3.241 0 0 0 567.615 28.213 Q 567.288 27.355 566.417 26.853 A 3.915 3.915 0 0 0 565.938 26.621 Q 564.125 25.885 559.574 25.86 A 58.795 58.795 0 0 0 559.258 25.859 Q 556.686 25.859 555.098 25.951 A 25.316 25.316 0 0 0 554.219 26.016 A 6.838 6.838 0 0 0 553.247 26.172 Q 552.725 26.299 552.31 26.506 A 3.091 3.091 0 0 0 551.66 26.934 A 4.597 4.597 0 0 0 551.204 27.384 Q 550.741 27.916 550.645 28.438 A 5.958 5.958 0 0 0 550.584 28.873 Q 550.498 29.672 550.469 31.211 Q 550.43 31.953 550.43 32.383 L 544.453 32.148 A 7.561 7.561 0 0 1 544.415 31.751 Q 544.375 31.183 544.375 30.313 A 14.98 14.98 0 0 1 544.496 28.354 Q 544.63 27.339 544.913 26.48 A 8.11 8.11 0 0 1 545.137 25.879 Q 545.898 24.063 547.109 23.027 Q 548.107 22.174 549.716 21.626 A 13.011 13.011 0 0 1 550.43 21.406 A 21.698 21.698 0 0 1 554.601 20.665 A 20.614 20.614 0 0 1 554.609 20.664 Q 556.68 20.508 559.766 20.508 A 50.747 50.747 0 0 1 562.524 20.578 Q 563.946 20.656 565.161 20.819 A 20.942 20.942 0 0 1 567.383 21.23 A 11.24 11.24 0 0 1 570.049 22.241 A 9.176 9.176 0 0 1 572.188 23.828 Q 574.063 25.703 574.785 28.613 A 20.639 20.639 0 0 1 575.197 30.824 Q 575.352 31.979 575.43 33.326 A 50.165 50.165 0 0 1 575.508 36.211 Z M 528.477 43.086 L 507.188 43.086 A 325.807 325.807 0 0 0 507.285 49.023 A 424.938 424.938 0 0 0 507.5 55.508 A 5.363 5.363 0 0 0 507.768 56.872 A 3.355 3.355 0 0 0 509.746 58.965 A 7.296 7.296 0 0 0 510.991 59.327 Q 513.039 59.759 516.889 59.8 A 78.075 78.075 0 0 0 517.734 59.805 A 47.945 47.945 0 0 0 519.316 59.78 Q 520.095 59.754 520.777 59.702 A 24.306 24.306 0 0 0 521.562 59.629 A 12.742 12.742 0 0 0 522.592 59.476 Q 523.106 59.376 523.538 59.239 A 5.705 5.705 0 0 0 524.16 59.004 Q 525.156 58.555 525.723 58.145 A 1.987 1.987 0 0 0 526.241 57.578 Q 526.434 57.268 526.563 56.855 A 13.385 13.385 0 0 0 526.727 56.284 Q 526.863 55.768 526.914 55.371 Q 526.992 54.766 527.07 53.535 A 39.216 39.216 0 0 1 527.112 52.948 Q 527.168 52.227 527.241 51.693 A 12.928 12.928 0 0 1 527.266 51.523 L 533.242 52.617 A 48.566 48.566 0 0 1 533.151 54.55 Q 533.086 55.493 532.985 56.309 A 23.098 23.098 0 0 1 532.852 57.246 A 12.777 12.777 0 0 1 532.402 59.119 A 9.923 9.923 0 0 1 531.797 60.586 A 8.581 8.581 0 0 1 531.068 61.771 A 6.201 6.201 0 0 1 530.039 62.871 A 6.233 6.233 0 0 1 529.016 63.55 Q 528.271 63.95 527.305 64.258 Q 525.586 64.805 523.516 64.98 A 42.923 42.923 0 0 1 521.826 65.088 Q 520.303 65.156 518.398 65.156 A 57.379 57.379 0 0 1 515.283 65.076 Q 513.783 64.995 512.472 64.829 A 30.594 30.594 0 0 1 511.602 64.707 A 42.291 42.291 0 0 1 509.392 64.307 Q 508.351 64.088 507.45 63.833 A 22.035 22.035 0 0 1 506.66 63.594 A 7.805 7.805 0 0 1 504.304 62.379 A 7.166 7.166 0 0 1 503.281 61.426 A 20.57 20.57 0 0 1 502.228 60.136 Q 501.62 59.324 501.191 58.555 Q 500.43 57.188 500.078 54.531 A 65.962 65.962 0 0 1 499.79 51.997 A 48.099 48.099 0 0 1 499.629 49.707 Q 499.554 48.047 499.537 45.414 A 256.474 256.474 0 0 1 499.531 43.711 A 358.154 358.154 0 0 1 499.54 41.165 Q 499.557 38.692 499.611 36.853 A 96.4 96.4 0 0 1 499.668 35.313 A 38.444 38.444 0 0 1 500.43 29.277 A 20.342 20.342 0 0 1 500.815 27.706 Q 501.351 25.865 502.109 24.883 A 7.822 7.822 0 0 1 503.227 23.724 Q 504.07 23.003 505.234 22.344 Q 507.305 21.172 510.117 20.84 Q 512.007 20.617 514.584 20.544 A 94.71 94.71 0 0 1 517.266 20.508 A 87.894 87.894 0 0 1 519.406 20.533 Q 520.461 20.558 521.39 20.611 A 45.343 45.343 0 0 1 522.461 20.684 A 21.293 21.293 0 0 1 524.935 21.023 A 17.371 17.371 0 0 1 526.484 21.406 Q 527.89 21.825 528.918 22.335 A 9.343 9.343 0 0 1 529.512 22.656 A 5.988 5.988 0 0 1 530.862 23.76 A 7.926 7.926 0 0 1 531.621 24.727 Q 532.539 26.094 533.027 27.559 A 13.358 13.358 0 0 1 533.342 28.679 Q 533.623 29.856 533.828 31.445 Q 534.141 33.867 534.219 36.348 A 126.129 126.129 0 0 1 534.253 37.665 Q 534.297 39.756 534.297 42.539 Q 529.911 42.978 528.637 43.074 A 23.67 23.67 0 0 1 528.477 43.086 Z M 335.508 4.609 L 335.508 64.57 L 328.477 64.57 L 327.734 59.18 A 8.408 8.408 0 0 1 322.929 63.886 Q 319.919 65.156 315.273 65.156 A 35.56 35.56 0 0 1 312.871 65.079 Q 311.58 64.991 310.449 64.805 A 13.325 13.325 0 0 1 308.582 64.364 A 9.804 9.804 0 0 1 306.777 63.594 A 19.874 19.874 0 0 1 305.388 62.747 Q 304.715 62.297 304.158 61.831 A 12.153 12.153 0 0 1 304.141 61.816 Q 303.047 60.898 302.324 59.16 A 35.952 35.952 0 0 1 301.715 57.599 Q 301.448 56.859 301.247 56.187 A 21.118 21.118 0 0 1 301.191 55.996 A 11.614 11.614 0 0 1 300.956 54.996 Q 300.753 53.948 300.626 52.512 A 40.651 40.651 0 0 1 300.586 52.031 A 105.096 105.096 0 0 1 300.461 50.218 Q 300.376 48.782 300.352 47.598 A 138.485 138.485 0 0 1 300.334 46.566 Q 300.319 45.416 300.315 43.907 A 462.974 462.974 0 0 1 300.312 42.461 A 175.162 175.162 0 0 1 300.326 40.209 Q 300.349 38.433 300.41 36.992 Q 300.508 34.688 300.801 32.422 Q 301.094 30.156 301.582 28.613 A 15.541 15.541 0 0 1 302.891 25.625 A 8.364 8.364 0 0 1 303.887 24.214 A 6.806 6.806 0 0 1 304.863 23.301 Q 306.016 22.422 307.617 21.738 A 12.435 12.435 0 0 1 309.567 21.099 A 16.4 16.4 0 0 1 311.289 20.781 A 30.253 30.253 0 0 1 313.423 20.581 Q 314.477 20.517 315.641 20.509 A 49.092 49.092 0 0 1 315.977 20.508 A 30.415 30.415 0 0 1 318.907 20.639 Q 321.839 20.924 323.745 21.825 A 8.866 8.866 0 0 1 323.809 21.855 A 7.955 7.955 0 0 1 327.813 26.133 L 327.813 5.234 L 335.508 4.609 Z M 46.875 44.219 L 31.367 44.219 L 31.367 64.57 L 23.477 64.57 L 23.477 6.367 L 44.57 6.367 A 75.404 75.404 0 0 1 47.138 6.408 Q 48.379 6.451 49.453 6.537 A 35.559 35.559 0 0 1 50.723 6.66 A 21.622 21.622 0 0 1 54.003 7.291 A 18.574 18.574 0 0 1 55.391 7.734 Q 57.539 8.516 58.828 9.844 Q 60.037 11.089 60.936 13.055 A 16.489 16.489 0 0 1 61.055 13.32 A 15.632 15.632 0 0 1 61.851 15.659 Q 62.178 16.924 62.363 18.379 A 44.441 44.441 0 0 1 62.595 20.724 Q 62.691 22.029 62.737 23.511 A 86.951 86.951 0 0 1 62.773 25.352 Q 62.773 28.594 62.448 31.186 A 32.731 32.731 0 0 1 62.383 31.68 A 36.491 36.491 0 0 1 62.024 33.801 Q 61.73 35.255 61.348 36.426 A 11.968 11.968 0 0 1 60.503 38.414 A 9.606 9.606 0 0 1 59.59 39.805 A 12.83 12.83 0 0 1 58.411 41.109 A 9.796 9.796 0 0 1 57.246 42.07 A 8.638 8.638 0 0 1 55.701 42.92 A 11.482 11.482 0 0 1 54.277 43.418 Q 52.539 43.906 50.84 44.063 Q 49.473 44.188 47.738 44.213 A 61.004 61.004 0 0 1 46.875 44.219 Z M 187.578 44.219 L 172.07 44.219 L 172.07 64.57 L 164.18 64.57 L 164.18 6.367 L 185.273 6.367 A 75.404 75.404 0 0 1 187.841 6.408 Q 189.082 6.451 190.156 6.537 A 35.559 35.559 0 0 1 191.426 6.66 A 21.622 21.622 0 0 1 194.706 7.291 A 18.574 18.574 0 0 1 196.094 7.734 Q 198.242 8.516 199.531 9.844 Q 200.74 11.089 201.639 13.055 A 16.489 16.489 0 0 1 201.758 13.32 A 15.632 15.632 0 0 1 202.554 15.659 Q 202.881 16.924 203.066 18.379 A 44.441 44.441 0 0 1 203.298 20.724 Q 203.394 22.029 203.44 23.511 A 86.951 86.951 0 0 1 203.477 25.352 Q 203.477 28.594 203.152 31.186 A 32.731 32.731 0 0 1 203.086 31.68 A 36.491 36.491 0 0 1 202.727 33.801 Q 202.433 35.255 202.051 36.426 A 11.968 11.968 0 0 1 201.206 38.414 A 9.606 9.606 0 0 1 200.293 39.805 A 12.83 12.83 0 0 1 199.114 41.109 A 9.796 9.796 0 0 1 197.949 42.07 A 8.638 8.638 0 0 1 196.404 42.92 A 11.482 11.482 0 0 1 194.98 43.418 Q 193.242 43.906 191.543 44.063 Q 190.176 44.188 188.442 44.213 A 61.004 61.004 0 0 1 187.578 44.219 Z M 624.531 59.141 L 624.375 64.609 Q 621.312 65.12 618.793 65.154 A 26.415 26.415 0 0 1 618.437 65.156 Q 616.385 65.156 614.849 64.832 A 9.9 9.9 0 0 1 613.73 64.531 A 6.368 6.368 0 0 1 612.328 63.872 A 4.788 4.788 0 0 1 610.938 62.539 Q 610 61.172 609.648 59.512 A 13.904 13.904 0 0 1 609.441 58.2 Q 609.297 56.925 609.297 55.273 L 609.297 26.094 L 603.477 26.094 L 603.477 21.719 L 609.297 21.719 L 609.297 9.531 L 616.953 8.906 L 616.953 21.719 L 624.844 21.719 L 624.844 26.094 L 616.953 26.094 L 616.953 52.656 Q 616.953 56.32 617.262 57.745 A 3.852 3.852 0 0 0 617.363 58.125 A 1.664 1.664 0 0 0 618.516 59.227 Q 618.848 59.333 619.268 59.363 A 4.816 4.816 0 0 0 619.609 59.375 A 38.161 38.161 0 0 0 620.862 59.352 Q 622.169 59.309 623.939 59.184 A 137.237 137.237 0 0 0 624.531 59.141 Z M 360.859 65.111 A 88.812 88.812 0 0 0 363.789 65.156 Q 366.592 65.156 368.785 65.012 A 41.379 41.379 0 0 0 371.055 64.805 A 15.983 15.983 0 0 0 373.431 64.34 A 11.802 11.802 0 0 0 376.035 63.281 A 16.299 16.299 0 0 0 376.74 62.863 Q 377.481 62.397 378.077 61.901 A 8.5 8.5 0 0 0 379.238 60.742 A 4.818 4.818 0 0 0 379.374 60.567 Q 380.069 59.629 380.562 58.057 A 17.813 17.813 0 0 0 380.977 56.465 A 35.507 35.507 0 0 0 381.738 50.703 Q 381.841 48.564 381.866 45.173 A 318.288 318.288 0 0 0 381.875 42.773 A 289.766 289.766 0 0 0 381.875 42.591 Q 381.873 38.923 381.777 36.445 Q 381.68 33.906 381.328 31.465 A 32.845 32.845 0 0 0 381.078 29.964 Q 380.804 28.53 380.449 27.52 A 10.789 10.789 0 0 0 378.926 24.668 A 8.539 8.539 0 0 0 378.177 23.783 A 6.631 6.631 0 0 0 376.68 22.617 A 9.541 9.541 0 0 0 376.056 22.297 Q 375.505 22.039 374.85 21.807 A 19.279 19.279 0 0 0 373.496 21.387 A 20.041 20.041 0 0 0 371.932 21.028 A 24.499 24.499 0 0 0 369.277 20.684 A 49.267 49.267 0 0 0 368.158 20.611 Q 366.251 20.508 363.828 20.508 Q 361.851 20.508 360.216 20.576 A 53.095 53.095 0 0 0 358.379 20.684 A 25.719 25.719 0 0 0 356.714 20.865 A 20.984 20.984 0 0 0 354.16 21.387 A 20.728 20.728 0 0 0 353.333 21.63 Q 352.672 21.84 352.105 22.075 A 10.444 10.444 0 0 0 350.977 22.617 A 6.447 6.447 0 0 0 349.79 23.481 A 8.195 8.195 0 0 0 348.73 24.668 A 10.789 10.789 0 0 0 347.207 27.52 Q 346.68 29.023 346.328 31.465 A 47.816 47.816 0 0 0 345.879 36.445 A 90.532 90.532 0 0 0 345.874 36.569 Q 345.805 38.434 345.787 40.957 A 259.018 259.018 0 0 0 345.781 42.773 Q 345.781 46.582 345.858 49.138 A 88.347 88.347 0 0 0 345.918 50.703 A 35.507 35.507 0 0 0 346.68 56.465 Q 347.095 58.397 347.716 59.641 A 5.896 5.896 0 0 0 348.398 60.723 Q 349.082 61.565 350.155 62.346 A 15.272 15.272 0 0 0 351.582 63.262 A 11.538 11.538 0 0 0 354.028 64.291 A 15.504 15.504 0 0 0 356.563 64.805 A 39.352 39.352 0 0 0 358.296 64.974 Q 359.484 65.065 360.859 65.111 Z M 595.391 5.898 L 595.391 64.57 L 587.695 64.57 L 587.695 6.523 L 595.391 5.898 Z M 363.867 59.766 A 73.996 73.996 0 0 0 366.411 59.671 Q 369.952 59.474 371.582 58.945 A 3.986 3.986 0 0 0 372.599 58.463 Q 373.687 57.723 373.747 56.335 A 3.803 3.803 0 0 0 373.75 56.172 A 135.408 135.408 0 0 0 374.044 50.948 Q 374.146 48.267 374.171 45.273 A 238.552 238.552 0 0 0 374.18 43.242 A 81.489 81.489 0 0 0 374.167 41.901 Q 374.142 40.382 374.065 38.309 A 328.978 328.978 0 0 0 373.984 36.309 A 352.53 352.53 0 0 1 373.899 34.198 Q 373.79 31.285 373.789 29.649 A 49.578 49.578 0 0 1 373.789 29.609 Q 373.789 28.945 373.574 28.398 A 2.104 2.104 0 0 0 372.871 27.48 A 8.699 8.699 0 0 0 372.139 26.979 A 7.593 7.593 0 0 0 371.895 26.836 A 2.772 2.772 0 0 0 371.513 26.662 Q 371.104 26.509 370.528 26.406 A 141.591 141.591 0 0 1 369.907 26.295 Q 369.664 26.25 369.448 26.21 A 68.389 68.389 0 0 1 369.043 26.133 A 6.159 6.159 0 0 0 368.627 26.069 Q 368.098 26.004 367.324 25.977 A 97.918 97.918 0 0 0 366.799 25.959 Q 366.06 25.938 365.605 25.938 L 363.828 25.938 L 362.051 25.938 Q 361.445 25.938 360.332 25.977 A 21.716 21.716 0 0 0 359.807 26.001 Q 359.241 26.035 358.842 26.094 A 5.363 5.363 0 0 0 358.613 26.133 Q 358.197 26.213 357.652 26.312 A 145.987 145.987 0 0 1 357.129 26.406 A 7.126 7.126 0 0 0 356.618 26.515 Q 356.098 26.648 355.763 26.835 A 1.625 1.625 0 0 0 355.762 26.836 A 8.12 8.12 0 0 0 355.029 27.301 A 9.334 9.334 0 0 0 354.785 27.48 A 2.104 2.104 0 0 0 354.082 28.398 A 3.112 3.112 0 0 0 353.885 29.235 A 3.814 3.814 0 0 0 353.867 29.609 A 70.999 70.999 0 0 1 353.855 30.848 Q 353.819 32.9 353.675 36.228 A 426.064 426.064 0 0 1 353.672 36.309 Q 353.522 39.763 353.487 41.992 A 80.029 80.029 0 0 0 353.477 43.242 A 213.528 213.528 0 0 0 353.559 49.332 Q 353.638 52.105 353.794 54.566 A 118.823 118.823 0 0 0 353.906 56.172 Q 353.906 58.242 356.191 59.004 A 10.4 10.4 0 0 0 357.625 59.355 Q 359.159 59.631 361.45 59.721 A 61.44 61.44 0 0 0 363.867 59.766 Z M 327.813 54.609 L 327.813 31.836 Q 327.813 28.438 325.703 27.168 A 6.1 6.1 0 0 0 324.321 26.583 Q 322.794 26.123 320.363 25.972 A 41.979 41.979 0 0 0 317.773 25.898 A 50.577 50.577 0 0 0 315.654 25.94 Q 313.448 26.033 311.974 26.333 A 10.185 10.185 0 0 0 311.055 26.562 A 2.968 2.968 0 0 0 309.431 27.811 Q 309.108 28.293 308.877 28.944 A 7.864 7.864 0 0 0 308.633 29.785 A 19.275 19.275 0 0 0 308.303 31.639 Q 308.027 33.728 308.009 36.582 A 63.873 63.873 0 0 0 308.008 36.992 A 493.779 493.779 0 0 0 308.022 40.623 Q 308.053 44.706 308.145 50.192 A 1843.415 1843.415 0 0 0 308.242 55.469 A 5.688 5.688 0 0 0 308.497 56.817 A 3.375 3.375 0 0 0 310.332 58.926 Q 312.227 59.805 317.773 59.805 Q 323.242 59.805 325.41 58.711 A 4.118 4.118 0 0 0 327.528 56.15 A 6.909 6.909 0 0 0 327.812 54.609 Z M 46.758 12.227 L 31.367 12.227 L 31.367 38.32 L 45.156 38.32 A 30.008 30.008 0 0 0 47.117 38.26 Q 48.861 38.146 50.117 37.813 A 7.425 7.425 0 0 0 51.534 37.287 A 5.24 5.24 0 0 0 53.105 36.114 Q 54.18 34.922 54.551 33.32 Q 54.922 31.719 54.922 29.18 A 61.546 61.546 0 0 0 54.921 28.818 Q 54.917 28.268 54.905 27.366 A 424.793 424.793 0 0 0 54.902 27.148 A 295.487 295.487 0 0 1 54.894 26.482 Q 54.886 25.832 54.884 25.339 A 87.575 87.575 0 0 1 54.883 24.922 A 147.638 147.638 0 0 0 54.858 23.582 Q 54.814 21.67 54.727 20.352 A 24.486 24.486 0 0 0 54.447 17.926 A 21.166 21.166 0 0 0 54.277 17.031 Q 53.953 15.504 53.442 14.686 A 3.422 3.422 0 0 0 53.418 14.648 A 4.624 4.624 0 0 0 52.458 13.58 A 5.682 5.682 0 0 0 51.973 13.223 A 5.098 5.098 0 0 0 50.492 12.564 A 6.316 6.316 0 0 0 49.824 12.422 Q 48.906 12.276 47.651 12.239 A 30.355 30.355 0 0 0 46.758 12.227 Z M 187.461 12.227 L 172.07 12.227 L 172.07 38.32 L 185.859 38.32 A 30.008 30.008 0 0 0 187.82 38.26 Q 189.564 38.146 190.82 37.813 A 7.425 7.425 0 0 0 192.237 37.287 A 5.24 5.24 0 0 0 193.808 36.114 Q 194.883 34.922 195.254 33.32 Q 195.625 31.719 195.625 29.18 A 61.546 61.546 0 0 0 195.624 28.818 Q 195.621 28.268 195.608 27.366 A 424.793 424.793 0 0 0 195.605 27.148 A 295.487 295.487 0 0 1 195.597 26.482 Q 195.589 25.832 195.587 25.339 A 87.575 87.575 0 0 1 195.586 24.922 A 147.638 147.638 0 0 0 195.562 23.582 Q 195.518 21.67 195.43 20.352 A 24.486 24.486 0 0 0 195.15 17.926 A 21.166 21.166 0 0 0 194.98 17.031 Q 194.656 15.504 194.145 14.686 A 3.422 3.422 0 0 0 194.121 14.648 A 4.624 4.624 0 0 0 193.161 13.58 A 5.682 5.682 0 0 0 192.676 13.223 A 5.098 5.098 0 0 0 191.195 12.564 A 6.316 6.316 0 0 0 190.527 12.422 Q 189.609 12.276 188.354 12.239 A 30.355 30.355 0 0 0 187.461 12.227 Z M 105.43 25.469 L 105.43 20.039 A 63.567 63.567 0 0 0 105.426 19.337 Q 105.418 18.577 105.39 18.03 A 16.641 16.641 0 0 0 105.371 17.715 A 9.667 9.667 0 0 0 105.25 16.733 A 12.25 12.25 0 0 0 105.078 15.918 Q 104.909 15.226 104.607 14.779 A 2.077 2.077 0 0 0 104.355 14.473 A 5.28 5.28 0 0 0 103.888 14.061 Q 103.641 13.867 103.346 13.673 A 10.005 10.005 0 0 0 103.066 13.496 Q 102.266 13.008 100.996 12.813 Q 99.975 12.655 98.675 12.536 A 58.133 58.133 0 0 0 98.027 12.48 A 37.63 37.63 0 0 0 96.657 12.397 Q 95.435 12.344 93.945 12.344 L 80.781 12.344 L 80.781 34.336 L 94.414 34.336 A 48.032 48.032 0 0 0 96.357 34.299 Q 97.225 34.264 97.98 34.195 A 20.891 20.891 0 0 0 99.375 34.023 A 17.765 17.765 0 0 0 100.685 33.766 Q 101.296 33.621 101.812 33.442 A 8.164 8.164 0 0 0 102.559 33.145 A 3.907 3.907 0 0 0 104.414 31.426 A 7.419 7.419 0 0 0 105.234 28.965 A 14.401 14.401 0 0 0 105.337 28.061 Q 105.424 27.045 105.429 25.667 A 47.651 47.651 0 0 0 105.43 25.469 Z M 481.953 25.469 L 481.953 20.039 A 63.567 63.567 0 0 0 481.949 19.337 Q 481.941 18.577 481.913 18.03 A 16.641 16.641 0 0 0 481.895 17.715 A 9.667 9.667 0 0 0 481.773 16.733 A 12.25 12.25 0 0 0 481.602 15.918 Q 481.432 15.226 481.13 14.779 A 2.077 2.077 0 0 0 480.879 14.473 A 5.28 5.28 0 0 0 480.411 14.061 Q 480.165 13.867 479.869 13.673 A 10.005 10.005 0 0 0 479.59 13.496 Q 478.789 13.008 477.52 12.813 Q 476.498 12.655 475.198 12.536 A 58.133 58.133 0 0 0 474.551 12.48 A 37.63 37.63 0 0 0 473.18 12.397 Q 471.958 12.344 470.469 12.344 L 457.305 12.344 L 457.305 34.336 L 470.938 34.336 A 48.032 48.032 0 0 0 472.881 34.299 Q 473.749 34.264 474.503 34.195 A 20.891 20.891 0 0 0 475.898 34.023 A 17.765 17.765 0 0 0 477.209 33.766 Q 477.819 33.621 478.336 33.442 A 8.164 8.164 0 0 0 479.082 33.145 A 3.907 3.907 0 0 0 480.938 31.426 A 7.419 7.419 0 0 0 481.758 28.965 A 14.401 14.401 0 0 0 481.861 28.061 Q 481.947 27.045 481.953 25.667 A 47.651 47.651 0 0 0 481.953 25.469 Z M 507.227 38.984 L 526.602 38.984 A 177.003 177.003 0 0 0 526.465 34.199 A 133.981 133.981 0 0 0 526.211 29.844 A 4.792 4.792 0 0 0 525.968 28.576 A 3.115 3.115 0 0 0 524.16 26.66 A 6.765 6.765 0 0 0 523.016 26.31 Q 521.098 25.88 517.568 25.86 A 61.41 61.41 0 0 0 517.227 25.859 Q 511.641 25.859 510.156 26.484 A 2.67 2.67 0 0 0 509.004 27.168 A 2.753 2.753 0 0 0 508.61 27.674 Q 508.379 28.049 508.203 28.555 A 17.628 17.628 0 0 0 507.925 29.424 A 13.614 13.614 0 0 0 507.715 30.234 Q 507.539 31.016 507.441 32.402 Q 507.344 33.789 507.305 34.551 A 27.717 27.717 0 0 0 507.286 34.982 Q 507.261 35.695 507.246 36.847 A 161.021 161.021 0 0 0 507.246 36.875 Q 507.23 38.157 507.227 38.755 A 48.387 48.387 0 0 0 507.227 38.984 Z M 236.172 52.305 L 236.172 45.625 A 168.971 168.971 0 0 0 232.546 45.662 Q 227.441 45.771 224.336 46.211 A 33.348 33.348 0 0 0 222.546 46.51 Q 219.931 47.027 218.858 47.796 A 3.072 3.072 0 0 0 218.809 47.832 A 3.333 3.333 0 0 0 217.445 50.273 A 4.663 4.663 0 0 0 217.422 50.742 L 217.422 50.977 A 57.845 57.845 0 0 0 217.456 53.045 Q 217.572 56.262 218.077 57.688 A 2.983 2.983 0 0 0 218.398 58.359 Q 219.286 59.674 223.501 59.793 A 30.94 30.94 0 0 0 224.375 59.805 Q 227.367 59.805 229.568 59.303 A 12.752 12.752 0 0 0 231.289 58.789 A 11.737 11.737 0 0 0 232.791 58.099 Q 233.53 57.689 234.077 57.212 A 4.965 4.965 0 0 0 234.98 56.191 A 7.039 7.039 0 0 0 235.896 54.074 A 9.737 9.737 0 0 0 236.172 52.305 Z M 567.813 52.305 L 567.813 45.625 A 168.971 168.971 0 0 0 564.187 45.662 Q 559.082 45.771 555.977 46.211 A 33.348 33.348 0 0 0 554.187 46.51 Q 551.572 47.027 550.499 47.796 A 3.072 3.072 0 0 0 550.449 47.832 A 3.333 3.333 0 0 0 549.086 50.273 A 4.663 4.663 0 0 0 549.062 50.742 L 549.063 50.977 A 57.845 57.845 0 0 0 549.097 53.045 Q 549.212 56.262 549.717 57.688 A 2.983 2.983 0 0 0 550.039 58.359 Q 550.927 59.674 555.141 59.793 A 30.94 30.94 0 0 0 556.016 59.805 Q 559.007 59.805 561.208 59.303 A 12.752 12.752 0 0 0 562.93 58.789 A 11.737 11.737 0 0 0 564.432 58.099 Q 565.17 57.689 565.718 57.212 A 4.965 4.965 0 0 0 566.621 56.191 A 7.039 7.039 0 0 0 567.536 54.074 A 9.737 9.737 0 0 0 567.812 52.305 Z" vector-effect="non-scaling-stroke"/></g></svg>
